<svg width="18" height="18" viewBox="0 0 18 18" fill="none" xmlns="http://www.w3.org/2000/svg">
<g clip-path="url(#clip0_13_5)">
<path d="M15.375 4.49601H13.1296L11.8333 3.07935H7.58333V4.49601H11.21L12.5063 5.91268H15.375V14.4127H4.04167V8.03768H2.625V14.4127C2.625 15.1918 3.2625 15.8293 4.04167 15.8293H15.375C16.1542 15.8293 16.7917 15.1918 16.7917 14.4127V5.91268C16.7917 5.13351 16.1542 4.49601 15.375 4.49601ZM6.16667 10.1627C6.16667 12.1177 7.75333 13.7043 9.70833 13.7043C11.6633 13.7043 13.25 12.1177 13.25 10.1627C13.25 8.20768 11.6633 6.62101 9.70833 6.62101C7.75333 6.62101 6.16667 8.20768 6.16667 10.1627ZM9.70833 8.03768C10.8771 8.03768 11.8333 8.99393 11.8333 10.1627C11.8333 11.3314 10.8771 12.2877 9.70833 12.2877C8.53958 12.2877 7.58333 11.3314 7.58333 10.1627C7.58333 8.99393 8.53958 8.03768 9.70833 8.03768ZM4.04167 4.49601H6.16667V3.07935H4.04167V0.954346H2.625V3.07935H0.5V4.49601H2.625V6.62101H4.04167V4.49601Z" fill="currentColor"/>
</g>
<defs>
<clipPath id="clip0_13_5">
<rect width="17" height="17" fill="currentColor" transform="translate(0.5 0.245972)"/>
</clipPath>
</defs>
</svg>
