<svg width="14" height="14" viewBox="0 0 14 14" fill="none" xmlns="http://www.w3.org/2000/svg">
<path d="M7.33759 13.1287C8.52427 13.1287 9.68431 12.7768 10.671 12.1175C11.6577 11.4583 12.4267 10.5212 12.8809 9.42483C13.335 8.32847 13.4538 7.12207 13.2223 5.95818C12.9908 4.7943 12.4193 3.7252 11.5802 2.88609C10.7411 2.04697 9.67201 1.47553 8.50813 1.24401C7.34424 1.0125 6.13784 1.13132 5.04148 1.58545C3.94513 2.03957 3.00806 2.80861 2.34877 3.7953C1.68948 4.782 1.33759 5.94204 1.33759 7.12873C1.33759 8.12073 1.57759 9.05539 2.00425 9.88006L1.33759 13.1287L4.58625 12.4621C5.41025 12.8881 6.34625 13.1287 7.33759 13.1287Z" stroke="white" stroke-linecap="round" stroke-linejoin="round"/>
</svg>
