<svg width="auto" height="auto" viewBox="0 0 15 14" fill="none" xmlns="http://www.w3.org/2000/svg">
<path d="M7.66877 2.79538L7.30877 3.14205C7.35541 3.19044 7.41133 3.22893 7.47319 3.25522C7.53504 3.28151 7.60156 3.29506 7.66877 3.29506C7.73598 3.29506 7.8025 3.28151 7.86436 3.25522C7.92621 3.22893 7.98213 3.19044 8.02877 3.14205L7.66877 2.79538ZM5.95277 11.3434C4.94211 10.5467 3.83744 9.76871 2.96077 8.78205C2.10211 7.81405 1.50211 6.68538 1.50211 5.22005H0.502106C0.502106 6.99738 1.24211 8.35338 2.21344 9.44605C3.16677 10.5194 4.38277 11.3794 5.33344 12.1287L5.95277 11.3434ZM1.50211 5.22005C1.50211 3.78671 2.31211 2.58405 3.41811 2.07805C4.49277 1.58671 5.93677 1.71671 7.30877 3.14205L8.02877 2.44938C6.40211 0.758047 4.51144 0.478714 3.00211 1.16871C1.52611 1.84405 0.502106 3.41205 0.502106 5.22005H1.50211ZM5.33344 12.1287C5.67544 12.398 6.04211 12.6847 6.41344 12.902C6.78477 13.1187 7.20877 13.2954 7.66877 13.2954V12.2954C7.46211 12.2954 7.21944 12.2154 6.91811 12.0387C6.61611 11.8627 6.30344 11.62 5.95277 11.3434L5.33344 12.1287ZM10.0041 12.1287C10.9548 11.3787 12.1708 10.52 13.1241 9.44605C14.0954 8.35271 14.8354 6.99738 14.8354 5.22005H13.8354C13.8354 6.68538 13.2354 7.81405 12.3768 8.78205C11.5001 9.76871 10.3954 10.5467 9.38477 11.3434L10.0041 12.1287ZM14.8354 5.22005C14.8354 3.41205 13.8121 1.84405 12.3354 1.16871C10.8261 0.478714 8.93677 0.758047 7.30877 2.44871L8.02877 3.14205C9.40077 1.71738 10.8448 1.58671 11.9194 2.07805C13.0254 2.58405 13.8354 3.78605 13.8354 5.22005H14.8354ZM9.38477 11.3434C9.03411 11.62 8.72144 11.8627 8.41944 12.0387C8.11811 12.2147 7.87544 12.2954 7.66877 12.2954V13.2954C8.12877 13.2954 8.55277 13.1187 8.92411 12.902C9.29611 12.6847 9.66211 12.398 10.0041 12.1287L9.38477 11.3434Z" fill="white"/>
</svg>
