<svg width="17" height="17" viewBox="0 0 17 17" fill="none" xmlns="http://www.w3.org/2000/svg">
<g clip-path="url(#clip0_18_437)">
<path d="M8.90417 4.14749L8.54417 4.49416C8.59081 4.54255 8.64673 4.58104 8.70858 4.60733C8.77044 4.63362 8.83696 4.64717 8.90417 4.64717C8.97138 4.64717 9.0379 4.63362 9.09975 4.60733C9.16161 4.58104 9.21753 4.54255 9.26417 4.49416L8.90417 4.14749ZM7.18817 12.6955C6.1775 11.8988 5.07284 11.1208 4.19617 10.1342C3.3375 9.16616 2.7375 8.03749 2.7375 6.57216H1.7375C1.7375 8.34949 2.4775 9.70549 3.44884 10.7982C4.40217 11.8715 5.61817 12.7315 6.56884 13.4808L7.18817 12.6955ZM2.7375 6.57216C2.7375 5.13883 3.5475 3.93616 4.6535 3.43016C5.72817 2.93883 7.17217 3.06883 8.54417 4.49416L9.26417 3.80149C7.6375 2.11016 5.74684 1.83083 4.2375 2.52083C2.7615 3.19616 1.7375 4.76416 1.7375 6.57216H2.7375ZM6.56884 13.4808C6.91084 13.7502 7.2775 14.0368 7.64884 14.2542C8.02017 14.4708 8.44417 14.6475 8.90417 14.6475V13.6475C8.6975 13.6475 8.45484 13.5675 8.1535 13.3908C7.8515 13.2148 7.53884 12.9722 7.18817 12.6955L6.56884 13.4808ZM11.2395 13.4808C12.1902 12.7308 13.4062 11.8722 14.3595 10.7982C15.3308 9.70482 16.0708 8.34949 16.0708 6.57216H15.0708C15.0708 8.03749 14.4708 9.16616 13.6122 10.1342C12.7355 11.1208 11.6308 11.8988 10.6202 12.6955L11.2395 13.4808ZM16.0708 6.57216C16.0708 4.76416 15.0475 3.19616 13.5708 2.52083C12.0615 1.83083 10.1722 2.11016 8.54417 3.80083L9.26417 4.49416C10.6362 3.06949 12.0802 2.93883 13.1548 3.43016C14.2608 3.93616 15.0708 5.13816 15.0708 6.57216H16.0708ZM10.6202 12.6955C10.2695 12.9722 9.95684 13.2148 9.65484 13.3908C9.3535 13.5668 9.11084 13.6475 8.90417 13.6475V14.6475C9.36417 14.6475 9.78817 14.4708 10.1595 14.2542C10.5315 14.0368 10.8975 13.7502 11.2395 13.4808L10.6202 12.6955Z" fill="#FF0034"/>
</g>
<defs>
<clipPath id="clip0_18_437">
<rect width="16" height="16" fill="white" transform="translate(0.904175 0.480835)"/>
</clipPath>
</defs>
</svg>
