<svg width="25" height="25" viewBox="0 0 25 25" fill="none" xmlns="http://www.w3.org/2000/svg">
<path d="M3.66876 11.742C3.66876 7.971 3.66876 6.085 4.84076 4.914C6.01176 3.742 7.89776 3.742 11.6688 3.742H13.6688C17.4398 3.742 19.3258 3.742 20.4968 4.914C21.6688 6.085 21.6688 7.971 21.6688 11.742V13.742C21.6688 17.513 21.6688 19.399 20.4968 20.57C19.3258 21.742 17.4398 21.742 13.6688 21.742H11.6688C7.89776 21.742 6.01176 21.742 4.84076 20.57C3.66876 19.399 3.66876 17.513 3.66876 13.742V11.742Z" stroke="white" stroke-width="2"/>
<path d="M17.1688 9.742C17.9972 9.742 18.6688 9.07043 18.6688 8.242C18.6688 7.41358 17.9972 6.742 17.1688 6.742C16.3403 6.742 15.6688 7.41358 15.6688 8.242C15.6688 9.07043 16.3403 9.742 17.1688 9.742Z" fill="white"/>
<path d="M12.6688 15.742C14.3256 15.742 15.6688 14.3989 15.6688 12.742C15.6688 11.0852 14.3256 9.742 12.6688 9.742C11.0119 9.742 9.66876 11.0852 9.66876 12.742C9.66876 14.3989 11.0119 15.742 12.6688 15.742Z" stroke="white" stroke-width="2"/>
</svg>
