<svg width="25" height="25" viewBox="0 0 25 25" fill="none" xmlns="http://www.w3.org/2000/svg">
<g clip-path="url(#clip0_18_463)">
<path d="M10.5696 10.973C11.4767 10.0659 12.6978 9.54223 13.9802 9.51021C15.2626 9.4782 16.5083 9.94032 17.4596 10.801L17.6406 10.973L20.4686 13.802C21.3896 14.7247 21.9138 15.9706 21.9295 17.2742C21.9452 18.5778 21.4512 19.836 20.5526 20.7805C19.6541 21.7251 18.4221 22.2814 17.1194 22.3308C15.8166 22.3802 14.5461 21.9188 13.5786 21.045L13.3986 20.873L11.2766 18.751C11.0972 18.571 10.9931 18.3296 10.9853 18.0756C10.9776 17.8217 11.0668 17.5743 11.2348 17.3837C11.4029 17.1932 11.6371 17.0737 11.89 17.0496C12.143 17.0255 12.3956 17.0986 12.5966 17.254L12.6906 17.337L14.8126 19.459C15.3626 20.0123 16.1066 20.3295 16.8867 20.3434C17.6668 20.3573 18.4216 20.0667 18.991 19.5333C19.5604 19 19.8996 18.2657 19.9367 17.4864C19.9737 16.7071 19.7058 15.944 19.1896 15.359L19.0546 15.216L16.2266 12.388C15.948 12.1094 15.6172 11.8883 15.2532 11.7375C14.8892 11.5868 14.4991 11.5091 14.1051 11.5091C13.7111 11.5091 13.3209 11.5868 12.9569 11.7375C12.5929 11.8883 12.2622 12.1094 11.9836 12.388C11.7959 12.5755 11.5415 12.6808 11.2762 12.6807C11.0109 12.6806 10.7566 12.5751 10.5691 12.3875C10.3816 12.1999 10.2763 11.9454 10.2764 11.6801C10.2765 11.4149 10.3819 11.1605 10.5696 10.973ZM4.20557 4.609C5.1127 3.70193 6.33377 3.17823 7.6162 3.14621C8.89863 3.1142 10.1443 3.57632 11.0956 4.437L11.2766 4.609L13.3976 6.732C13.5769 6.91195 13.681 7.15343 13.6888 7.40738C13.6966 7.66133 13.6074 7.90871 13.4393 8.09928C13.2713 8.28984 13.037 8.4093 12.7841 8.4334C12.5312 8.45749 12.2786 8.38441 12.0776 8.229L11.9836 8.146L9.86257 6.025C9.31154 5.47756 8.56966 5.16517 7.79301 5.15357C7.01635 5.14197 6.26547 5.43205 5.69833 5.96278C5.1312 6.49352 4.79201 7.22354 4.75215 7.99925C4.71228 8.77497 4.97483 9.53592 5.48457 10.122L5.61957 10.266L8.44857 13.095C9.01115 13.6574 9.77408 13.9734 10.5696 13.9734C11.3651 13.9734 12.128 13.6574 12.6906 13.095C12.7834 13.0021 12.8936 12.9284 13.015 12.8781C13.1363 12.8278 13.2664 12.8018 13.3977 12.8018C13.5291 12.8017 13.6591 12.8276 13.7805 12.8778C13.9019 12.928 14.0122 13.0017 14.1051 13.0945C14.198 13.1873 14.2717 13.2976 14.322 13.4189C14.3723 13.5402 14.3982 13.6703 14.3983 13.8016C14.3983 13.933 14.3725 14.0631 14.3223 14.1844C14.2721 14.3058 14.1984 14.4161 14.1056 14.509C13.1984 15.4161 11.9774 15.9398 10.6949 15.9718C9.41251 16.0038 8.16683 15.5417 7.21557 14.681L7.03357 14.509L4.20557 11.68C3.26822 10.7424 2.74164 9.47082 2.74164 8.145C2.74164 6.81918 3.26822 5.54664 4.20557 4.609Z" fill="white"/>
</g>
<defs>
<clipPath id="clip0_18_463">
<rect width="24" height="24" fill="white" transform="translate(0.337585 0.742004)"/>
</clipPath>
</defs>
</svg>
