<svg width="24" height="25" viewBox="0 0 24 25" fill="none" xmlns="http://www.w3.org/2000/svg">
<path d="M4.5 10.7199C3.675 10.7199 3 11.3949 3 12.2199C3 13.0449 3.675 13.7199 4.5 13.7199C5.325 13.7199 6 13.0449 6 12.2199C6 11.3949 5.325 10.7199 4.5 10.7199ZM19.5 10.7199C18.675 10.7199 18 11.3949 18 12.2199C18 13.0449 18.675 13.7199 19.5 13.7199C20.325 13.7199 21 13.0449 21 12.2199C21 11.3949 20.325 10.7199 19.5 10.7199ZM12 10.7199C11.175 10.7199 10.5 11.3949 10.5 12.2199C10.5 13.0449 11.175 13.7199 12 13.7199C12.825 13.7199 13.5 13.0449 13.5 12.2199C13.5 11.3949 12.825 10.7199 12 10.7199Z" fill="#9E9E9E"/>
</svg>
