<svg width="31" height="31" viewBox="0 0 31 31" fill="none" xmlns="http://www.w3.org/2000/svg">
<circle cx="15.5463" cy="15.2349" r="12.8364" fill="#858585"/>
<path d="M25.746 23.8588C27.0923 22.2051 28.0287 20.2448 28.476 18.1435C28.9232 16.0423 28.8681 13.862 28.3153 11.7872C27.7626 9.71227 26.7284 7.80381 25.3003 6.22323C23.8722 4.64264 22.0922 3.43643 20.1109 2.70662C18.1296 1.97682 16.0052 1.7449 13.9175 2.03048C11.8298 2.31605 9.84016 3.11073 8.11694 4.34728C6.39372 5.58383 4.98759 7.22588 4.01751 9.13451C3.04742 11.0431 2.54192 13.1622 2.54377 15.3125C2.54456 18.4383 3.6236 21.464 5.59158 23.8588L5.57283 23.875C5.63845 23.9554 5.71346 24.0243 5.78096 24.1038C5.86533 24.2023 5.95627 24.2952 6.04345 24.3909C6.3047 24.6824 6.57658 24.96 6.85908 25.2235C6.94658 25.3026 7.03408 25.3798 7.12158 25.4551C7.42158 25.7199 7.73096 25.9693 8.04971 26.2035C8.09096 26.2322 8.12846 26.2695 8.16971 26.2992V26.2877C10.3654 27.8652 12.9848 28.7118 15.6697 28.7118C18.3546 28.7118 20.974 27.8652 23.1697 26.2877V26.2992C23.211 26.2695 23.2475 26.2322 23.2897 26.2035C23.6085 25.9687 23.9178 25.7192 24.2178 25.4551C24.3053 25.3792 24.3928 25.302 24.4803 25.2235C24.7622 24.96 25.0341 24.6824 25.296 24.3909C25.3831 24.2952 25.4731 24.2023 25.5585 24.1038C25.625 24.0243 25.701 23.9554 25.7666 23.8741L25.746 23.8588ZM15.6688 7.65621C16.5032 7.65621 17.3188 7.90879 18.0126 8.38201C18.7064 8.85523 19.2471 9.52784 19.5664 10.3148C19.8857 11.1017 19.9692 11.9676 19.8065 12.803C19.6437 13.6384 19.2419 14.4058 18.6519 15.0081C18.0619 15.6104 17.3102 16.0206 16.4918 16.1867C15.6734 16.3529 14.8252 16.2676 14.0543 15.9417C13.2834 15.6157 12.6246 15.0637 12.161 14.3555C11.6974 13.6473 11.45 12.8146 11.45 11.9629C11.45 10.8207 11.8945 9.72525 12.6857 8.9176C13.4768 8.10995 14.5499 7.65621 15.6688 7.65621ZM8.17533 23.8588C8.19159 22.6021 8.69184 21.4026 9.56785 20.5196C10.4439 19.6366 11.6252 19.1412 12.8563 19.1406H18.4813C19.7123 19.1412 20.8937 19.6366 21.7697 20.5196C22.6457 21.4026 23.1459 22.6021 23.1622 23.8588C21.1061 25.7502 18.4365 26.7969 15.6688 26.7969C12.901 26.7969 10.2314 25.7502 8.17533 23.8588Z" fill="black"/>
</svg>
