<svg width="14" height="15" viewBox="0 0 14 15" fill="none" xmlns="http://www.w3.org/2000/svg">
<path d="M11.2352 9.1287C10.8609 9.13058 10.4918 9.21647 10.1552 9.38003C9.81857 9.54359 9.52296 9.78064 9.29017 10.0737L5.63517 7.7887C5.76838 7.35879 5.76838 6.89862 5.63517 6.4687L9.29017 4.1837C9.66114 4.64306 10.1827 4.95629 10.7625 5.06791C11.3423 5.17952 11.9429 5.08232 12.4579 4.79352C12.9729 4.50471 13.3691 4.04295 13.5762 3.49003C13.7834 2.9371 13.7881 2.32871 13.5896 1.77262C13.3912 1.21653 13.0023 0.748633 12.4919 0.451818C11.9814 0.155004 11.3824 0.0484281 10.8009 0.150971C10.2195 0.253514 9.69305 0.558557 9.31495 1.01206C8.93684 1.46557 8.73145 2.03827 8.73517 2.6287C8.73759 2.85229 8.77125 3.07444 8.83517 3.2887L5.18017 5.5737C4.85749 5.16749 4.41644 4.87173 3.91814 4.7274C3.41985 4.58307 2.889 4.59734 2.39918 4.76821C1.90935 4.93908 1.48481 5.25811 1.18441 5.68105C0.884011 6.104 0.722626 6.60993 0.722626 7.1287C0.722626 7.64748 0.884011 8.1534 1.18441 8.57635C1.48481 8.9993 1.90935 9.31832 2.39918 9.4892C2.889 9.66007 3.41985 9.67433 3.91814 9.53001C4.41644 9.38568 4.85749 9.08991 5.18017 8.6837L8.83517 10.9687C8.77125 11.183 8.73759 11.4051 8.73517 11.6287C8.73517 12.1232 8.88179 12.6065 9.15649 13.0176C9.4312 13.4288 9.82164 13.7492 10.2785 13.9384C10.7353 14.1276 11.2379 14.1771 11.7229 14.0807C12.2078 13.9842 12.6533 13.7461 13.0029 13.3965C13.3526 13.0468 13.5907 12.6014 13.6871 12.1164C13.7836 11.6315 13.7341 11.1288 13.5449 10.672C13.3556 10.2152 13.0352 9.82473 12.6241 9.55003C12.213 9.27532 11.7296 9.1287 11.2352 9.1287ZM11.2352 1.1287C11.5318 1.1287 11.8218 1.21668 12.0685 1.3815C12.3152 1.54632 12.5075 1.78059 12.621 2.05468C12.7345 2.32877 12.7642 2.63037 12.7063 2.92134C12.6485 3.21231 12.5056 3.47958 12.2958 3.68936C12.0861 3.89914 11.8188 4.042 11.5278 4.09988C11.2368 4.15776 10.9352 4.12805 10.6611 4.01452C10.3871 3.90099 10.1528 3.70873 9.98796 3.46206C9.82314 3.21538 9.73517 2.92537 9.73517 2.6287C9.73517 2.23088 9.8932 1.84935 10.1745 1.56804C10.4558 1.28674 10.8373 1.1287 11.2352 1.1287ZM3.23517 8.6287C2.9385 8.6287 2.64849 8.54073 2.40181 8.37591C2.15514 8.21109 1.96288 7.97682 1.84935 7.70273C1.73582 7.42864 1.70611 7.12704 1.76399 6.83607C1.82187 6.5451 1.96473 6.27782 2.17451 6.06804C2.38429 5.85826 2.65156 5.7154 2.94253 5.65753C3.23351 5.59965 3.5351 5.62935 3.80919 5.74288C4.08328 5.85642 4.31755 6.04867 4.48237 6.29535C4.6472 6.54202 4.73517 6.83203 4.73517 7.1287C4.73517 7.52653 4.57713 7.90806 4.29583 8.18936C4.01452 8.47067 3.63299 8.6287 3.23517 8.6287ZM11.2352 13.1287C10.9385 13.1287 10.6485 13.0407 10.4018 12.8759C10.1551 12.7111 9.96288 12.4768 9.84935 12.2027C9.73582 11.9286 9.70611 11.627 9.76399 11.3361C9.82187 11.0451 9.96473 10.7778 10.1745 10.568C10.3843 10.3583 10.6516 10.2154 10.9425 10.1575C11.2335 10.0996 11.5351 10.1294 11.8092 10.2429C12.0833 10.3564 12.3176 10.5487 12.4824 10.7953C12.6472 11.042 12.7352 11.332 12.7352 11.6287C12.7352 12.0265 12.5771 12.4081 12.2958 12.6894C12.0145 12.9707 11.633 13.1287 11.2352 13.1287Z" fill="white"/>
</svg>
